<svg xmlns="http://www.w3.org/2000/svg" viewBox="0 0 72 19">
  <g transform="translate(67.8, 1.4) scale(0.35, -0.35)">
    <path fill="#008c44" d="m 0,0 11.5,-22.8 -24.2,-22.8 z"/>
  </g>
  <g transform="translate(65, 1.4) scale(0.35, -0.35)">
    <path fill="#f47920" d="M 0,0 11.5,-22.8 -12.7,-45.6 Z"/>
  </g>
  <g transform="translate(0, 14.6) scale(0.35, -0.35)">
    <path fill="#1b3281" d="m 0,0 11.5,41.3 h 18.3 c 5.7,0 9.5,-0.9 11.5,-2.8 1.9,-1.9 2.3,-4.9 1.1,-9.1 -0.7,-2.5 -1.8,-4.6 -3.2,-6.3 -1.5,-1.7 -3.4,-3 -5.7,-3.9 2,-0.5 3.3,-1.4 3.9,-2.9 0.6,-1.4 0.5,-3.5 -0.2,-6.3 L 35.7,4.2 35.7,4.1 C 35.3,2.5 35.4,1.6 36.1,1.5 L 35.6,0 H 23.2 c 0,1 0.1,1.8 0.2,2.6 0.1,0.7 0.2,1.3 0.3,1.7 l 1.2,4.1 c 0.6,2.1 0.6,3.6 0.1,4.5 -0.5,0.9 -1.8,1.3 -3.7,1.3 H 16.1 L 12.1,0 Z m 18.7,23.5 h 5.6 c 2,0 3.4,0.3 4.3,0.9 0.9,0.6 1.6,1.6 1.9,3 0.4,1.4 0.3,2.5 -0.3,3 -0.6,0.6 -2,0.9 -4.1,0.9 h -5.3 z"/>
    <path fill="#1b3281" d="m 76.4,30.5 -8.4,-30.5 H 57.7 l 1.3,4.5 C 57.2,2.7 55.4,1.4 53.5,0.5 51.7,-0.4 49.7,-0.8 47.7,-0.8 c -1.7,0 -3.2,0.3 -4.3,0.9 -1.2,0.6 -2.1,1.5 -2.7,2.8 -0.5,1.1 -0.8,2.4 -0.7,4 0.1,1.5 0.6,4.2 1.7,7.8 L 47.9,30.5 h 11.2 l -4.4,-15.7 c -0.6,-2.3 -0.8,-3.9 -0.5,-4.8 0.3,-0.9 1.2,-1.3 2.6,-1.3 1.4,0 2.6,0.5 3.6,1.6 1,1 1.8,2.6 2.3,4.6 L 65.2,30.5 Z" transform="translate(-14.3, 0)"/>
    <path fill="#1b3281" d="m 72.4,0 11.4,41.3 h 15.7 c 3.5,0 6.2,-0.2 8.1,-0.7 1.9,-0.4 3.4,-1.1 4.5,-2.1 1.4,-1.3 2.3,-2.9 2.6,-4.8 0.3,-1.9 0.1,-4.2 -0.6,-6.8 -1.2,-4.6 -3.4,-8.1 -6.6,-10.6 -3.2,-2.4 -7.2,-3.7 -11.9,-3.7 H 88.2 L 84.7,0 Z m 18.6,22.7 h 4 c 2.6,0 4.4,0.3 5.4,0.9 1,0.6 1.7,1.7 2.2,3.3 0.4,1.6 0.3,2.7 -0.3,3.3 -0.6,0.6 -2.3,0.9 -4.9,0.9 h -4 z" transform="translate(0, 0)"/>
    <path fill="#1b3281" d="m 127.3,0 0.1,2.9 c -1.8,-1.4 -3.6,-2.4 -5.5,-3 -1.8,-0.7 -3.8,-1 -5.9,-1 -3.2,0 -5.4,0.9 -6.7,2.5 -1.3,1.7 -1.5,4.1 -0.6,7.1 0.8,3 2.3,5.3 4.4,6.7 2.1,1.4 5.6,2.5 10.6,3.1 0.6,0.1 1.5,0.2 2.5,0.3 3.7,0.4 5.7,1.4 6.1,3 0.2,0.9 0.1,1.5 -0.5,1.9 -0.5,0.4 -1.5,0.6 -2.9,0.6 -1.2,0 -2.1,-0.2 -2.9,-0.7 -0.8,-0.5 -1.3,-1.3 -1.7,-2.3 h -10.9 c 1,3.4 3,6 6,7.8 3,1.8 7,2.6 11.9,2.6 2.3,0 4.4,-0.2 6.2,-0.7 1.8,-0.5 3.2,-1.1 4.1,-1.9 1.1,-1 1.7,-2.1 1.9,-3.3 0.2,-1.2 0,-3 -0.7,-5.3 l -5.2,-18.2 c -0.2,-0.6 -0.2,-1.1 -0.1,-1.5 0.1,-0.4 0.3,-0.8 0.6,-1 L 138.6,0 Z m 2.7,13.6 c -1.2,-0.5 -2.7,-1 -4.7,-1.5 -3,-0.8 -4.7,-1.9 -5.1,-3.2 -0.3,-0.9 -0.2,-1.6 0.2,-2.1 0.4,-0.5 1.1,-0.7 2.2,-0.7 1.9,0 3.4,0.5 4.5,1.4 1.1,0.9 2,2.4 2.5,4.5 0.1,0.4 0.2,0.7 0.3,1 z" transform="translate(0, 0)"/>
  </g>
  <g transform="translate(48.9, 18.8) scale(0.35, -0.35)">
    <path fill="#1b3281" d="m 0,0 2.5,9 h 3.2 c 1.1,0 1.9,0.2 2.5,0.6 0.6,0.4 1,1.1 1.3,2 0.1,0.4 0.2,0.8 0.2,1.3 0,0.5 0,1.1 0,1.7 l -1.7,27.9 h 11.4 l -0.2,-18.5 9.9,18.5 h 10.6 L 22.1,12.1 c -2,-3.4 -3.4,-5.7 -4.3,-7 -0.9,-1.3 -1.8,-2.2 -2.6,-2.9 -1.1,-0.9 -2.3,-1.5 -3.6,-1.9 -1.3,-0.4 -3.3,-0.6 -6,-0.6 -0.8,0 -1.7,0 -2.6,0.1 C 2,-0.1 1,0 0,0"/>
  </g>
</svg>
