<svg xmlns="http://www.w3.org/2000/svg" viewBox="0 0 130 46">
  <g transform="scale(0.35, -0.35) translate(-31, -173)">
    <path fill="#696a6a" d="M 34,61 h 2.8 l -2.6,-10.8 c -0.4,-1.6 -0.3,-2.8 0.2,-3.6 0.5,-0.8 1.5,-1.2 2.9,-1.2 1.4,0 2.6,0.4 3.5,1.2 0.9,0.8 1.6,2 1.9,3.6 l 2.6,10.8 h 2.8 l -2.6,-11 c -0.6,-2.4 -1.6,-4.2 -3.1,-5.4 -1.5,-1.2 -3.4,-1.8 -5.8,-1.8 -2.4,0 -4,0.6 -4.9,1.8 -0.9,1.2 -1.1,3 -0.5,5.4 z" transform="translate(90, 0)"/>
    <path fill="#66686c" d="M 316.5,76.5 H 297.2 L 324,173.4 h 19.3 z"/>
    <path fill="#66686c" d="M 306.5,170.3 c -1.3,1.8 -3.4,2.8 -6.2,2.8 H 194.3 l -5.3,-19 h 19.3 v 0 h 77.2 l -5.6,-20.3 h -77.2 l 0,0 h -19.3 l -16,-57.8 h 19.3 l 10.7,38.8 h 86.8 c 2.7,0 5.3,0.9 7.7,2.8 2.4,1.9 4,4.1 4.7,6.9 L 307.3,163.3 c 0.8,2.8 0.5,5.1 -0.8,7"/>
    <path fill="#66686c" d="M 156.1,82.5 c -1.1,-3.8 -4.6,-6.5 -8.5,-6.5 H 48.1 c -2.7,0 -4.7,0.9 -6.1,2.8 -1.3,1.8 -1.6,4.1 -0.9,6.9 l 24.3,87.4 h 19.3 l -21.7,-78.1 h 77.2 l 21.7,78.1 h 19.3 z"/>
    <path fill="#27803b" d="M 376.6,173.2 401,124.6 349.7,76.1 z"/>
    <path fill="#e9661c" d="M 359.5,173.2 383.9,124.6 332.6,76.1 z"/>
  </g>
</svg>
