<svg xmlns="http://www.w3.org/2000/svg" viewBox="0 0 1000 324">
  <g transform="matrix(4.43, 0, 0, 4.43, -81.2, -105)">
    <polygon fill="#00579f" points="116.1,95.7 97.9,95.7 109.3,25 127.6,25"/>
    <path fill="#00579f" d="m 182.4,26.7 c -3.6,-1.4 -9.3,-3 -16.4,-3 -18.1,0 -30.8,9.6 -30.9,23.4 -0.2,10.2 9.1,15.8 16,19.2 7.1,3.5 9.5,5.7 9.5,8.8 -0.1,4.7 -5.7,6.9 -11,6.9 -7.3,0 -11.2,-1.1 -17.2,-3.8 l -2.4,-1.1 -2.6,15.9 c 4.3,2 12.2,3.7 20.4,3.8 19.2,0 31.7,-9.5 31.8,-24.2 0.1,-8.1 -4.8,-14.2 -15.4,-19.3 -6.4,-3.2 -10.3,-5.4 -10.3,-8.7 0.1,-3 3.3,-6.1 10.5,-6.1 5.9,-0.2 10.3,1.3 13.6,2.7 l 1.7,0.8 2.5,-15.3 z"/>
    <path fill="#00579f" d="m 206.7,70.7 c 1.5,-4.1 7.3,-19.8 7.3,-19.8 0,0.2 1.5,-4.1 2.4,-6.8 l 1.3,6.1 c 0,0 3.5,16.9 4.2,20.5 -2.9,0 -11.6,0 -15.2,0 z m 22.6,-45.7 -14.1,0 c -4.4,0 -7.7,1.3 -9.6,5.9 L 178.4,95.7 h 19.2 c 0,0 3.2,-8.7 3.8,-10.6 2.1,0 20.8,0 23.5,0 0.5,2.5 2.2,10.6 2.2,10.6 h 16.9 l -14.7,-70.7 z"/>
    <path fill="#00579f" d="M 82.6,25 64.7,73.2 62.7,63.4 C 59.4,52.2 49,39.9 37.4,33.8 l 16.4,61.8 h 19.3 l 28.7,-70.6 h -19.2 z"/>
    <path fill="#faa61a" d="m 48,25 -29.4,0 -0.3,1.4 c 23,5.9 38.2,20 44.4,37 l 7.9,-32.5 c -1.1,-4.5 -4.3,-5.8 -8.3,-5.9 z"/>
  </g>
</svg>
